<svg width="1024" height="1024" viewBox="0 0 1024 1024" xmlns="http://www.w3.org/2000/svg">
<defs>
  <linearGradient id="bg" x1="0" y1="0" x2="1" y2="1">
    <stop offset="0%" stop-color="#FDF0F3"/>
    <stop offset="100%" stop-color="#ECC5D0"/>
  </linearGradient>
  <linearGradient id="mg" x1="0" y1="0" x2="0.6" y2="1">
    <stop offset="0%" stop-color="#FFFFFF"/>
    <stop offset="100%" stop-color="#F5DAE0"/>
  </linearGradient>
  <mask id="cm">
    <circle cx="512" cy="373" r="163" fill="white"/>
    <circle cx="609" cy="331" r="136" fill="black"/>
  </mask>
  <clipPath id="ic">
    <rect width="1024" height="1024" rx="224"/>
  </clipPath>
</defs>

<rect width="1024" height="1024" rx="224" fill="url(#bg)"/>

<g clip-path="url(#ic)">
  <g fill="#8C2A40" opacity="0.18">
    <circle cx="93" cy="72" r="2.3"/><circle cx="208" cy="42" r="1.5"/><circle cx="339" cy="108" r="3"/>
    <circle cx="735" cy="57" r="2.3"/><circle cx="861" cy="123" r="1.5"/><circle cx="931" cy="233" r="2.3"/>
    <circle cx="78" cy="283" r="1.5"/><circle cx="163" cy="429" r="2.3"/><circle cx="63" cy="560" r="1.5"/>
    <circle cx="971" cy="433" r="1.5"/><circle cx="990" cy="565" r="2.3"/><circle cx="128" cy="775" r="1.5"/>
    <circle cx="268" cy="879" r="2.3"/><circle cx="690" cy="915" r="1.5"/><circle cx="840" cy="870" r="2.3"/>
    <circle cx="961" cy="750" r="1.5"/><circle cx="467" cy="941" r="2.3"/><circle cx="118" cy="960" r="2.3"/>
  </g>

  <circle cx="512" cy="373" r="304" fill="none" stroke="#DD5878" stroke-width="1.2" opacity="0.14"/>
  <circle cx="512" cy="373" r="319" fill="none" stroke="#DD5878" stroke-width="0.6" opacity="0.07"/>
  <circle cx="512" cy="373" r="289" fill="none" stroke="#DD5878" stroke-width="0.6" opacity="0.07"/>

  <circle cx="512" cy="373" r="208" fill="#DD5878" opacity="0.04"/>

  <circle cx="512" cy="373" r="163" fill="url(#mg)" mask="url(#cm)"/>
  <circle cx="512" cy="373" r="166" fill="none" stroke="#FFFFFF" stroke-width="3" opacity="0.55" mask="url(#cm)"/>

  <g transform="translate(687,268)">
    <polygon points="0,-22.6 8.6,-2.7 21.5,-6.9 8.6,7.2 13.3,18.2 0,5.7 -13.3,18.2 -8.6,7.2 -21.5,-6.9 -8.6,-2.7" fill="#8C2A40" opacity="0.82"/>
  </g>
  <g transform="translate(340,316)">
    <polygon points="0,-15.1 5.7,-1.8 14.3,-4.6 5.7,4.8 8.8,12.1 0,3.8 -8.8,12.1 -5.7,4.8 -14.3,-4.6 -5.7,-1.8" fill="#8C2A40" opacity="0.65"/>
  </g>
  <g transform="translate(554,210)">
    <polygon points="0,-10.5 4,-1.2 10.1,-3.3 4,3.3 6.2,8.6 0,2.7 -6.2,8.6 -4,3.3 -10.1,-3.3 -4,-1.2" fill="#8C2A40" opacity="0.55"/>
  </g>
  <g transform="translate(747,371)">
    <polygon points="0,-8.3 3.2,-0.9 7.8,-2.6 3.2,2.6 4.8,6.6 0,2.1 -4.8,6.6 -3.2,2.6 -7.8,-2.6 -3.2,-0.9" fill="#8C2A40" opacity="0.45"/>
  </g>

  <circle cx="452" cy="226" r="3.8" fill="#DD5878" opacity="0.5"/>
  <circle cx="636" cy="235" r="3" fill="#DD5878" opacity="0.4"/>
  <circle cx="726" cy="295" r="3" fill="#8C2A40" opacity="0.35"/>
  <circle cx="295" cy="244" r="2.7" fill="#DD5878" opacity="0.35"/>
  <circle cx="404" cy="271" r="2.3" fill="#8C2A40" opacity="0.3"/>

  <circle cx="512" cy="69" r="4.5" fill="#DD5878" opacity="0.2"/>
  <circle cx="208" cy="373" r="4.5" fill="#DD5878" opacity="0.2"/>
  <circle cx="816" cy="373" r="4.5" fill="#DD5878" opacity="0.2"/>

  <path d="M416 636 Q512 675 608 636" fill="none" stroke="#DD5878" stroke-width="1.2" opacity="0.22"/>
  <line x1="419" y1="718" x2="605" y2="718" stroke="#DD5878" stroke-width="0.9" opacity="0.28"/>

  <text x="512" y="853"
    text-anchor="middle"
    font-family="'Noto Serif KR','Batang','AppleMyungjo','HYSMyeongJo-Medium','serif'"
    font-size="142"
    font-weight="300"
    letter-spacing="21"
    fill="#8C2A40">연운</text>

  <text x="512" y="928"
    text-anchor="middle"
    font-family="'Noto Serif KR',serif"
    font-size="38"
    font-weight="300"
    letter-spacing="15"
    fill="#DD5878"
    opacity="0.85">緣運 · YEONUN</text>
</g>
</svg>
